<svg width="32" height="38" viewBox="0 0 32 38" fill="none" xmlns="http://www.w3.org/2000/svg">
<path d="M7.04079 9.90627C7.17771 9.90627 7.28623 9.90627 7.39475 9.90627C13.4761 9.90627 19.5575 9.90627 25.6389 9.90627C26.5092 9.90627 27.2302 10.4379 27.3781 11.2797C27.4458 11.6632 27.3839 12.0882 27.3031 12.4784C26.6432 15.6599 25.9732 18.8392 25.2878 22.0148C25.0176 23.2661 23.9645 24.0931 22.7016 24.0938C18.1766 24.0953 13.6524 24.096 9.12739 24.0938C7.72321 24.0931 6.63803 23.078 6.49091 21.6572C6.26368 19.456 6.0248 17.2555 5.79684 15.0543C5.5514 12.688 5.31251 10.3201 5.07071 7.95383C5.06416 7.88942 5.05178 7.82574 5.04231 7.76206C4.99278 7.41654 4.79007 7.24378 4.43417 7.24378C4.01539 7.24378 3.59662 7.24675 3.17784 7.24305C2.66657 7.2386 2.2893 6.861 2.28785 6.36049C2.28639 5.85553 2.65928 5.47571 3.17056 5.47275C4.03506 5.46905 4.90029 5.46905 5.76552 5.47275C6.25858 5.47497 6.6038 5.79704 6.6577 6.29829C6.78515 7.49034 6.91042 8.68238 7.04006 9.90552L7.04079 9.90627ZM7.22723 11.6921C7.31463 12.5687 7.39693 13.4298 7.48724 14.2902C7.73559 16.6661 7.98832 19.0413 8.23521 21.4173C8.29712 22.0126 8.6234 22.3213 9.22936 22.3213C13.691 22.3228 18.1526 22.3228 22.6142 22.3213C23.1772 22.3213 23.486 22.0577 23.6054 21.4965C24.1451 18.948 24.6862 16.4003 25.2259 13.8519C25.3774 13.1352 25.5238 12.4177 25.6746 11.6921H7.22723Z" fill="white"/>
<path d="M10.1726 25.8707C11.6176 25.8744 12.7792 27.065 12.7778 28.5399C12.7756 30.0185 11.5965 31.1964 10.126 31.1898C8.6876 31.1831 7.52959 29.9844 7.53468 28.5066C7.53978 27.0443 8.71819 25.867 10.1733 25.8707H10.1726ZM11.0284 28.5702C11.0553 28.1067 10.665 27.6729 10.1952 27.6447C9.73927 27.6173 9.3103 28.0149 9.28335 28.4903C9.25641 28.9538 9.64678 29.3869 10.1173 29.4158C10.5746 29.4432 11.0014 29.0478 11.0291 28.5702H11.0284Z" fill="white"/>
<path d="M18.0259 28.5191C18.0281 27.0524 19.1999 25.87 20.6514 25.8707C22.1124 25.8715 23.2741 27.0635 23.269 28.5547C23.2639 30.0162 22.0847 31.1935 20.6303 31.1898C19.1875 31.1861 18.0237 29.9925 18.0259 28.5191ZM21.521 28.5236C21.5167 28.0512 21.1044 27.6395 20.6412 27.644C20.1773 27.6484 19.7695 28.0682 19.7738 28.5369C19.7782 29.0085 20.1911 29.4217 20.6543 29.4165C21.1205 29.4113 21.5261 28.9937 21.521 28.5236Z" fill="white"/>
</svg>
