<svg width="216" height="209" viewBox="0 0 216 209" fill="none" xmlns="http://www.w3.org/2000/svg">
<path d="M111.102 203.387C160.771 203.387 201.035 163.123 201.035 113.455C201.035 63.7861 160.771 23.5219 111.102 23.5219C61.434 23.5219 21.1697 63.7861 21.1697 113.455C21.1697 163.123 61.434 203.387 111.102 203.387Z" fill="url(#paint0_linear_240_417)"/>
<path fill-rule="evenodd" clip-rule="evenodd" d="M109.316 156.504C109.316 152.789 112.327 149.777 116.042 149.777H155.069C160.401 149.777 165.498 151.355 169.423 154.24C173.346 157.124 176.46 161.659 176.46 167.287C176.46 172.915 173.347 177.45 169.425 180.335C165.501 183.223 160.403 184.803 155.069 184.803H62.3376C58.6228 184.803 55.6113 181.792 55.6113 178.077C55.6113 174.362 58.6228 171.351 62.3376 171.351H155.069C157.835 171.351 160.07 170.517 161.453 169.5C162.838 168.48 163.007 167.621 163.007 167.287C163.007 166.954 162.839 166.097 161.455 165.08C160.072 164.063 157.837 163.23 155.069 163.23L115.649 161.909C111.934 161.909 109.316 160.219 109.316 156.504Z" fill="#9F19AB"/>
<path fill-rule="evenodd" clip-rule="evenodd" d="M170.534 76.1749C171.419 72.8666 174.416 70.5657 177.841 70.5657H208.436C212.613 70.5657 216 73.9523 216 78.1299C216 82.3075 212.613 85.6941 208.436 85.6941H183.648L174.822 118.681C173.742 122.717 169.595 125.113 165.56 124.033C161.524 122.953 159.128 118.807 160.208 114.771L170.534 76.1749Z" fill="url(#paint1_linear_240_417)"/>
<path d="M163.998 47.8669H72.227L64.9873 63.6908H156.751L163.998 47.8669Z" fill="url(#paint2_linear_240_417)"/>
<path d="M117.764 45.4756H57.7407L64.987 63.6906H125.004L117.764 45.4756Z" fill="url(#paint3_linear_240_417)"/>
<path d="M165.223 45.4756H132.25L125.004 63.6906H157.977L165.223 45.4756Z" fill="url(#paint4_linear_240_417)"/>
<path d="M157.983 63.6906H97.9597V123.714H157.983V63.6906Z" fill="url(#paint5_linear_240_417)"/>
<path d="M125.011 63.6906H64.9873V123.714H125.011V63.6906Z" fill="url(#paint6_linear_240_417)"/>
<path d="M84.739 208.062C93.7892 208.062 101.126 200.725 101.126 191.675C101.126 182.625 93.7892 175.288 84.739 175.288C75.6887 175.288 68.3521 182.625 68.3521 191.675C68.3521 200.725 75.6887 208.062 84.739 208.062Z" fill="#7C1DC9"/>
<path d="M166.064 90.85H53.1376C44.6726 90.85 38.4198 98.03 40.3341 105.541L49.5343 149.721C50.9187 155.146 56.2242 158.994 62.3378 158.994L161.909 165.437L178.894 105.561C183.079 93.3035 174.549 90.85 166.064 90.85Z" fill="url(#paint7_linear_240_417)"/>
<path d="M84.2869 199.936C88.8336 199.936 92.5195 196.25 92.5195 191.703C92.5195 187.157 88.8336 183.471 84.2869 183.471C79.7401 183.471 76.0542 187.157 76.0542 191.703C76.0542 196.25 79.7401 199.936 84.2869 199.936Z" fill="url(#paint8_linear_240_417)"/>
<mask id="mask0_240_417" style="mask-type:alpha" maskUnits="userSpaceOnUse" x="39" y="90" width="141" height="76">
<path d="M166.064 90.85H53.1376C44.6726 90.85 38.4198 98.03 40.3341 105.541L49.5343 149.721C50.9187 155.146 56.2242 158.994 62.3378 158.994L161.909 165.437L178.894 105.561C180.808 98.03 174.549 90.85 166.064 90.85Z" fill="url(#paint9_linear_240_417)"/>
</mask>
<g mask="url(#mask0_240_417)">
<rect width="9.4086" height="43.6772" rx="4.7043" transform="matrix(0.999966 0.00825468 -0.0123002 0.999924 118.296 124.779)" fill="url(#paint10_linear_240_417)"/>
<rect width="9.4086" height="165.665" rx="4.7043" transform="matrix(0.00661527 0.999978 -0.999997 0.00256955 200.171 93.4794)" fill="#9102D3"/>
<rect width="9.4086" height="43.6772" rx="4.7043" transform="matrix(0.999966 0.00825468 -0.0123002 0.999924 144.887 124.893)" fill="url(#paint11_linear_240_417)"/>
<rect width="9.4086" height="43.6772" rx="4.7043" transform="matrix(0.999966 0.00825468 -0.0123002 0.999924 91.7058 124.666)" fill="url(#paint12_linear_240_417)"/>
<rect width="9.4086" height="43.6772" rx="4.7043" transform="matrix(0.999966 0.00825468 -0.0123002 0.999924 64.8303 124.666)" fill="url(#paint13_linear_240_417)"/>
</g>
<path fill-rule="evenodd" clip-rule="evenodd" d="M143.761 2.41825C142.616 0.410087 140.489 -0.534553 139.012 0.308327C137.534 1.15121 137.265 3.46243 138.411 5.47059C138.443 5.5274 138.476 5.58336 138.51 5.63846C137.759 5.79257 137.053 6.52693 136.777 7.53857C136.421 8.84061 136.91 10.1089 137.87 10.3714C138.829 10.6339 139.896 9.7912 140.252 8.48917C140.35 8.13249 140.384 7.77835 140.362 7.44672C141.308 7.9645 142.335 8.0511 143.16 7.58052C143.886 7.16627 144.321 6.39737 144.439 5.48409C144.636 5.58687 144.852 5.67197 145.082 5.7349C146.384 6.09101 147.652 5.60165 147.915 4.64189C148.177 3.68213 147.335 2.6154 146.033 2.25928C145.195 2.03003 144.37 2.15117 143.819 2.52265C143.8 2.48776 143.781 2.45296 143.761 2.41825Z" fill="url(#paint14_linear_240_417)"/>
<path fill-rule="evenodd" clip-rule="evenodd" d="M75.955 10.2853C75.2828 10.9704 74.4364 11.3294 73.5818 11.197C72.5919 11.0437 71.8119 10.2652 71.41 9.18443C71.228 9.43053 70.9984 9.66092 70.7262 9.8601C69.6369 10.6573 68.2774 10.6525 67.6898 9.84955C67.1022 9.04658 67.509 7.74941 68.5983 6.95226C69.4631 6.3194 70.4981 6.19194 71.1821 6.56806C71.5427 4.29418 73.1874 2.66384 74.8632 2.9234C76.5159 3.17936 77.5837 5.1779 77.2829 7.41632C77.931 7.48553 78.6278 7.90025 79.1278 8.58355C79.925 9.67288 79.9203 11.0323 79.1173 11.6199C78.3143 12.2075 77.0172 11.8008 76.22 10.7115C76.1187 10.573 76.0304 10.4303 75.955 10.2853Z" fill="url(#paint15_linear_240_417)"/>
<path d="M14.4311 100.98C14.9486 98.8361 17.9983 98.8361 18.5158 100.98L19.3755 104.541C19.5605 105.308 20.1587 105.906 20.9249 106.091L24.4862 106.95C26.6302 107.468 26.6302 110.518 24.4862 111.035L20.9249 111.895C20.1587 112.08 19.5605 112.678 19.3755 113.444L18.5158 117.006C17.9983 119.15 14.9486 119.15 14.4311 117.006L13.5714 113.444C13.3864 112.678 12.7882 112.08 12.022 111.895L8.46073 111.035C6.31671 110.518 6.31671 107.468 8.46073 106.95L12.022 106.091C12.7882 105.906 13.3864 105.308 13.5714 104.541L14.4311 100.98Z" fill="url(#paint16_linear_240_417)"/>
<path d="M188.493 157.433C189.011 155.289 192.06 155.289 192.578 157.433L193.438 160.994C193.622 161.76 194.221 162.358 194.987 162.543L198.548 163.403C200.692 163.921 200.692 166.97 198.548 167.488L194.987 168.347C194.221 168.532 193.622 169.131 193.438 169.897L192.578 173.458C192.06 175.602 189.011 175.602 188.493 173.458L187.633 169.897C187.448 169.131 186.85 168.532 186.084 168.347L182.523 167.488C180.379 166.97 180.379 163.921 182.523 163.403L186.084 162.543C186.85 162.358 187.448 161.76 187.633 160.994L188.493 157.433Z" fill="url(#paint17_linear_240_417)"/>
<path fill-rule="evenodd" clip-rule="evenodd" d="M38.9115 58.7945C40.799 58.7945 42.3291 57.2644 42.3291 55.3768C42.3291 53.4893 40.799 51.9592 38.9115 51.9592C37.024 51.9592 35.4939 53.4893 35.4939 55.3768C35.4939 57.2644 37.024 58.7945 38.9115 58.7945ZM38.9115 61.3577C42.2147 61.3577 44.8924 58.68 44.8924 55.3768C44.8924 52.0737 42.2147 49.396 38.9115 49.396C35.6084 49.396 32.9307 52.0737 32.9307 55.3768C32.9307 58.68 35.6084 61.3577 38.9115 61.3577Z" fill="url(#paint18_linear_240_417)"/>
<path d="M25.263 147.296C24.93 145.99 26.1357 144.813 27.4332 145.178L33.0396 146.753C34.3371 147.118 34.7534 148.75 33.7888 149.692L29.6212 153.759C28.6567 154.701 27.0347 154.245 26.7017 152.939L25.263 147.296Z" fill="url(#paint19_linear_240_417)"/>
<path d="M202.212 123.273C203.519 122.942 204.694 124.149 204.328 125.446L202.745 131.05C202.379 132.348 200.746 132.762 199.805 131.796L195.743 127.623C194.803 126.657 195.261 125.036 196.567 124.705L202.212 123.273Z" fill="url(#paint20_linear_240_417)"/>
<path fill-rule="evenodd" clip-rule="evenodd" d="M180.435 51.4578C181.951 51.4578 183.18 50.2286 183.18 48.7122C183.18 47.1959 181.951 45.9667 180.435 45.9667C178.919 45.9667 177.689 47.1959 177.689 48.7122C177.689 50.2286 178.919 51.4578 180.435 51.4578ZM180.435 53.517C183.088 53.517 185.24 51.3658 185.24 48.7122C185.24 46.0586 183.088 43.9075 180.435 43.9075C177.781 43.9075 175.63 46.0586 175.63 48.7122C175.63 51.3658 177.781 53.517 180.435 53.517Z" fill="url(#paint21_linear_240_417)"/>
<rect x="35.2827" y="89.3832" width="148.188" height="10.1928" rx="5.09641" fill="url(#paint22_linear_240_417)"/>
<path d="M73.0124 12.6279C71.6628 18.0264 76.0344 29.3696 82.7824 30.2693C95.2683 31.9342 92.9752 17.3323 85.5266 20.0765C76.6618 23.3425 85.533 37.3131 97.6796 40.4622" stroke="#9F19AB" stroke-linecap="round" stroke-linejoin="round" stroke-dasharray="4 4"/>
<path d="M143.981 11.265C151.402 25.7078 131.741 41.1271 126.298 43.9838" stroke="#9F19AB" stroke-linecap="round" stroke-linejoin="round" stroke-dasharray="4 4"/>
<path d="M136.874 208.062C145.924 208.062 153.261 200.725 153.261 191.675C153.261 182.625 145.924 175.288 136.874 175.288C127.823 175.288 120.487 182.625 120.487 191.675C120.487 200.725 127.823 208.062 136.874 208.062Z" fill="#7C1DC9"/>
<path d="M136.819 199.936C141.366 199.936 145.052 196.25 145.052 191.703C145.052 187.157 141.366 183.471 136.819 183.471C132.272 183.471 128.586 187.157 128.586 191.703C128.586 196.25 132.272 199.936 136.819 199.936Z" fill="url(#paint23_linear_240_417)"/>
<defs>
<linearGradient id="paint0_linear_240_417" x1="110.409" y1="-5.76248" x2="112.252" y2="310.068" gradientUnits="userSpaceOnUse">
<stop stop-color="#9F19AB" stop-opacity="0.37"/>
<stop offset="1" stop-color="#8EE2F4"/>
</linearGradient>
<linearGradient id="paint1_linear_240_417" x1="243.906" y1="74.9242" x2="161.97" y2="76.4519" gradientUnits="userSpaceOnUse">
<stop stop-color="#9F19AB"/>
<stop offset="1" stop-color="#8EE2F4"/>
</linearGradient>
<linearGradient id="paint2_linear_240_417" x1="64.8752" y1="51.5189" x2="164.376" y2="55.561" gradientUnits="userSpaceOnUse">
<stop stop-color="#9F19AB"/>
<stop offset="1" stop-color="#41ACC4"/>
</linearGradient>
<linearGradient id="paint3_linear_240_417" x1="91.3723" y1="45.4756" x2="91.3723" y2="63.6906" gradientUnits="userSpaceOnUse">
<stop stop-color="#9F19AB"/>
<stop offset="1" stop-color="#B9ECF8"/>
</linearGradient>
<linearGradient id="paint4_linear_240_417" x1="145.114" y1="45.4756" x2="145.114" y2="63.6906" gradientUnits="userSpaceOnUse">
<stop stop-color="#9F19AB"/>
<stop offset="1" stop-color="#6CCFE3"/>
</linearGradient>
<linearGradient id="paint5_linear_240_417" x1="96.1575" y1="108.701" x2="182.877" y2="110.072" gradientUnits="userSpaceOnUse">
<stop offset="0.392237" stop-color="#9F19AB"/>
<stop offset="1" stop-color="#E9FCFF"/>
</linearGradient>
<linearGradient id="paint6_linear_240_417" x1="81.5426" y1="96.8317" x2="114.117" y2="105.32" gradientUnits="userSpaceOnUse">
<stop stop-color="#9F19AB"/>
<stop offset="1" stop-color="#BCF3FF"/>
</linearGradient>
<linearGradient id="paint7_linear_240_417" x1="39.8296" y1="108.309" x2="179.984" y2="109.984" gradientUnits="userSpaceOnUse">
<stop stop-color="#9F19AB"/>
<stop offset="1" stop-color="#65C8DE"/>
</linearGradient>
<linearGradient id="paint8_linear_240_417" x1="75.5598" y1="195.818" x2="99.3482" y2="196.194" gradientUnits="userSpaceOnUse">
<stop stop-color="#9F19AB"/>
<stop offset="1" stop-color="#BCF3FF"/>
</linearGradient>
<linearGradient id="paint9_linear_240_417" x1="39.8296" y1="108.309" x2="179.984" y2="109.984" gradientUnits="userSpaceOnUse">
<stop stop-color="#AFF1FF"/>
<stop offset="1" stop-color="#65C8DE"/>
</linearGradient>
<linearGradient id="paint10_linear_240_417" x1="-0.2825" y1="32.7526" x2="13.3139" y2="32.7989" gradientUnits="userSpaceOnUse">
<stop stop-color="#9F19AB"/>
<stop offset="1" stop-color="#62C9E0"/>
</linearGradient>
<linearGradient id="paint11_linear_240_417" x1="-0.2825" y1="32.7526" x2="13.3139" y2="32.7989" gradientUnits="userSpaceOnUse">
<stop stop-color="#9F19AB"/>
<stop offset="1" stop-color="#62C9E0"/>
</linearGradient>
<linearGradient id="paint12_linear_240_417" x1="-0.2825" y1="32.7526" x2="13.3139" y2="32.7989" gradientUnits="userSpaceOnUse">
<stop stop-color="#9F19AB"/>
<stop offset="1" stop-color="#62C9E0"/>
</linearGradient>
<linearGradient id="paint13_linear_240_417" x1="-0.2825" y1="32.7526" x2="13.3139" y2="32.7989" gradientUnits="userSpaceOnUse">
<stop stop-color="#9F19AB"/>
<stop offset="1" stop-color="#62C9E0"/>
</linearGradient>
<linearGradient id="paint14_linear_240_417" x1="136.648" y1="2.40463" x2="148.024" y2="2.48476" gradientUnits="userSpaceOnUse">
<stop stop-color="#9F19AB"/>
<stop offset="1" stop-color="#7C1DC9"/>
</linearGradient>
<linearGradient id="paint15_linear_240_417" x1="72.5108" y1="3.2182" x2="79.8027" y2="11.0684" gradientUnits="userSpaceOnUse">
<stop stop-color="#9F19AB"/>
<stop offset="1" stop-color="#7C1DC9"/>
</linearGradient>
<linearGradient id="paint16_linear_240_417" x1="-0.0373146" y1="100.123" x2="33.1261" y2="100.338" gradientUnits="userSpaceOnUse">
<stop stop-color="#9F19AB"/>
<stop offset="1" stop-color="#7C1DC9"/>
</linearGradient>
<linearGradient id="paint17_linear_240_417" x1="174.025" y1="156.576" x2="207.188" y2="156.791" gradientUnits="userSpaceOnUse">
<stop stop-color="#9F19AB"/>
<stop offset="1" stop-color="#7C1DC9"/>
</linearGradient>
<linearGradient id="paint18_linear_240_417" x1="32.9171" y1="52.1566" x2="44.9574" y2="52.2348" gradientUnits="userSpaceOnUse">
<stop stop-color="#9F19AB"/>
<stop offset="1" stop-color="#7C1DC9"/>
</linearGradient>
<linearGradient id="paint19_linear_240_417" x1="21.8033" y1="151.43" x2="31.7548" y2="141.842" gradientUnits="userSpaceOnUse">
<stop stop-color="#9F19AB"/>
<stop offset="1" stop-color="#7C1DC9"/>
</linearGradient>
<linearGradient id="paint20_linear_240_417" x1="198.083" y1="119.808" x2="207.657" y2="129.772" gradientUnits="userSpaceOnUse">
<stop stop-color="#9F19AB"/>
<stop offset="1" stop-color="#7C1DC9"/>
</linearGradient>
<linearGradient id="paint21_linear_240_417" x1="175.619" y1="46.1252" x2="185.292" y2="46.188" gradientUnits="userSpaceOnUse">
<stop stop-color="#9F19AB"/>
<stop offset="1" stop-color="#7C1DC9"/>
</linearGradient>
<linearGradient id="paint22_linear_240_417" x1="190.135" y1="94.8716" x2="32.9042" y2="67.175" gradientUnits="userSpaceOnUse">
<stop stop-color="#5F27BD"/>
<stop offset="1" stop-color="#871FA5"/>
</linearGradient>
<linearGradient id="paint23_linear_240_417" x1="128.092" y1="195.818" x2="151.88" y2="196.194" gradientUnits="userSpaceOnUse">
<stop stop-color="#9F19AB"/>
<stop offset="1" stop-color="#BCF3FF"/>
</linearGradient>
</defs>
</svg>
