<svg width="30" height="27" viewBox="0 0 30 27" fill="none" xmlns="http://www.w3.org/2000/svg">
<path d="M0.191242 10.3682C0.295563 9.78453 0.358156 9.18926 0.511159 8.61793C1.23677 5.89792 2.86649 3.84112 5.25273 2.39271C9.5631 -0.224617 15.0025 0.139031 18.9427 3.27519C19.2356 3.50835 19.4929 3.78784 19.7834 4.0241C19.9086 4.12601 20.0717 4.21248 20.2285 4.23873C24.0977 4.87415 27.1098 6.77345 28.8346 10.3512C30.4211 13.6426 30.0934 16.8861 28.1368 19.9635C28.0124 20.1589 27.9769 20.3125 28.0518 20.541C28.5842 22.167 29.0989 23.7992 29.6159 25.4298C29.799 26.0081 29.5594 26.5323 29.0247 26.6265C28.7998 26.6659 28.5216 26.6049 28.3122 26.5014C26.7258 25.7155 25.1478 24.9117 23.5745 24.1003C23.3636 23.9914 23.1974 23.9992 22.9834 24.0771C18.69 25.6313 14.6988 25.1102 11.0491 22.3129C10.8281 22.1431 10.6032 21.9671 10.4247 21.7563C10.1774 21.4637 9.86756 21.3741 9.50901 21.2907C8.64972 21.0915 7.80124 20.8406 6.95508 20.5874C6.77504 20.5333 6.63749 20.5233 6.4698 20.6098C4.8764 21.4251 3.283 22.2404 1.68032 23.0372C1.47786 23.1383 1.21281 23.2008 0.994125 23.1669C0.454749 23.0835 0.192788 22.5577 0.372838 21.9871C0.894441 20.3372 1.41914 18.6888 1.9531 17.0428C2.0157 16.8505 2.00179 16.7123 1.88587 16.5417C0.962443 15.179 0.402975 13.6796 0.241471 12.0374C0.233744 11.9625 0.20747 11.8892 0.189697 11.8151V10.3705L0.191242 10.3682ZM27.3455 24.071C27.31 23.9405 27.2907 23.8586 27.2652 23.7791C26.9282 22.7167 26.606 21.6482 26.2444 20.5943C26.0805 20.1156 26.1547 19.7404 26.4561 19.3366C28.6368 16.4135 28.6144 12.5053 26.3804 9.62239C24.6046 7.33011 22.2168 6.12645 19.3476 5.90641C16.3293 5.67479 13.6617 6.55418 11.4934 8.69514C9.50437 10.6593 8.63967 13.0612 9.10564 15.8461C9.54996 18.502 11.0591 20.4723 13.3588 21.7972C16.3795 23.5375 19.5323 23.6494 22.7353 22.299C23.1526 22.123 23.5127 22.1099 23.9153 22.3268C24.6857 22.7422 25.4732 23.1267 26.2536 23.5228C26.6021 23.6996 26.9507 23.8741 27.3448 24.0717L27.3455 24.071ZM8.41094 19.2941L8.45421 19.2339C8.41171 19.1482 8.36844 19.0633 8.32594 18.9776C6.86622 15.9943 6.82758 12.9886 8.36148 10.0455C10.0082 6.88772 12.7198 5.10114 16.1616 4.35995C16.5039 4.2866 16.8524 4.2426 17.2542 4.17543C17.0873 4.06348 16.9722 3.98009 16.8509 3.90597C15.4731 3.0621 13.9793 2.56565 12.3674 2.43903C9.64656 2.22517 7.18227 2.90923 5.06804 4.65179C2.98935 6.36502 1.88124 8.57624 1.93378 11.3009C1.96701 13.0172 2.54193 14.5613 3.57896 15.9264C3.85019 16.2838 3.91356 16.6344 3.77292 17.0567C3.42055 18.1144 3.08827 19.1791 2.7498 20.2407C2.7158 20.3465 2.69262 20.4561 2.65476 20.6013C2.81549 20.5225 2.93681 20.4662 3.05581 20.4052C4.09361 19.8778 5.13372 19.3544 6.16766 18.8193C6.50226 18.6464 6.81676 18.6379 7.16141 18.7931C7.57019 18.9776 7.99443 19.1289 8.41171 19.2941H8.41094Z" fill="#9102D3"/>
</svg>
