<svg width="25" height="24" viewBox="0 0 25 24" fill="none" xmlns="http://www.w3.org/2000/svg">
<path fill-rule="evenodd" clip-rule="evenodd" d="M11.657 0.344968C12.111 -0.114989 12.847 -0.114989 13.301 0.344968L23.7635 10.9451C24.2175 11.4051 24.2175 12.1508 23.7635 12.6108C23.3095 13.0707 22.5735 13.0707 22.1195 12.6108L21.779 12.2658V20.0225C21.779 21.9739 20.2176 23.5559 18.2915 23.5559H6.6665C4.74041 23.5559 3.179 21.9739 3.179 20.0225V12.2658L2.83852 12.6108C2.38453 13.0707 1.64848 13.0707 1.19449 12.6108C0.740508 12.1508 0.740508 11.4051 1.19449 10.9451L3.51908 8.58995C3.51935 8.58967 3.51963 8.58939 3.51991 8.58911L11.657 0.344968ZM5.504 9.91022V20.0225C5.504 20.673 6.02447 21.2003 6.6665 21.2003H18.2915C18.9335 21.2003 19.454 20.673 19.454 20.0225V9.91022L12.479 2.84345L5.504 9.91022Z" fill="white"/>
</svg>
