<svg width="17" height="21" viewBox="0 0 17 21" fill="none" xmlns="http://www.w3.org/2000/svg">
<path fill-rule="evenodd" clip-rule="evenodd" d="M8.5 2.1C6.24465 2.1 4.41633 3.9804 4.41633 6.3C4.41633 8.6196 6.24465 10.5 8.5 10.5C10.7554 10.5 12.5837 8.6196 12.5837 6.3C12.5837 3.9804 10.7554 2.1 8.5 2.1ZM12.2172 11.3078C13.6811 10.1566 14.6255 8.34174 14.6255 6.3C14.6255 2.82061 11.883 0 8.5 0C5.11697 0 2.37449 2.82061 2.37449 6.3C2.37449 8.34174 3.31885 10.1566 4.78285 11.3078C3.75634 11.7749 2.81196 12.4358 2.00292 13.2678C1.37819 13.9104 0.852653 14.636 0.436555 15.4194C-0.331295 16.865 -0.0181533 18.339 0.846577 19.3813C1.67904 20.3847 3.01259 21 4.41633 21H12.5837C13.9874 21 15.321 20.3847 16.1534 19.3813C17.0182 18.339 17.3313 16.865 16.5634 15.4194C16.1473 14.636 15.6218 13.9104 14.9971 13.2678C14.188 12.4358 13.2437 11.7749 12.2172 11.3078ZM8.5 12.6C6.60465 12.6 4.78693 13.3744 3.44671 14.7528C2.96075 15.2526 2.55206 15.8169 2.22845 16.4261C1.91507 17.0161 2.01616 17.5558 2.39981 18.0182C2.81573 18.5195 3.56472 18.9 4.41633 18.9H12.5837C13.4353 18.9 14.1843 18.5195 14.6002 18.0182C14.9838 17.5558 15.0849 17.0161 14.7715 16.4261C14.4479 15.8169 14.0392 15.2526 13.5533 14.7528C12.2131 13.3744 10.3954 12.6 8.5 12.6Z" fill="white"/>
</svg>
